<?xml version="1.0" encoding="UTF-8" standalone="no"?>
<!-- Created with Inkscape (http://www.inkscape.org/) -->

<svg
   width="102.48406mm"
   height="47.610298mm"
   viewBox="0 0 102.48406 47.610298"
   version="1.1"
   id="svg1655"
   sodipodi:docname="var1.svg"
   inkscape:version="1.2.2 (732a01da63, 2022-12-09)"
   xmlns:inkscape="http://www.inkscape.org/namespaces/inkscape"
   xmlns:sodipodi="http://sodipodi.sourceforge.net/DTD/sodipodi-0.dtd"
   xmlns:xlink="http://www.w3.org/1999/xlink"
   xmlns="http://www.w3.org/2000/svg"
   xmlns:svg="http://www.w3.org/2000/svg">
  <sodipodi:namedview
     id="namedview1657"
     pagecolor="#ffffff"
     bordercolor="#666666"
     borderopacity="1.0"
     inkscape:showpageshadow="2"
     inkscape:pageopacity="0.0"
     inkscape:pagecheckerboard="0"
     inkscape:deskcolor="#d1d1d1"
     inkscape:document-units="mm"
     showgrid="false"
     inkscape:zoom="0.70710678"
     inkscape:cx="-69.296464"
     inkscape:cy="366.98842"
     inkscape:window-width="1920"
     inkscape:window-height="1121"
     inkscape:window-x="4791"
     inkscape:window-y="-9"
     inkscape:window-maximized="1"
     inkscape:current-layer="layer1" />
  <defs
     id="defs1652">
    <linearGradient
       inkscape:collect="always"
       id="linearGradient6407">
      <stop
         style="stop-color:#ff5555;stop-opacity:1;"
         offset="0"
         id="stop6403" />
      <stop
         style="stop-color:#ff8d8d;stop-opacity:1;"
         offset="1"
         id="stop6405" />
    </linearGradient>
    <linearGradient
       inkscape:collect="always"
       xlink:href="#linearGradient6407"
       id="linearGradient6293"
       gradientUnits="userSpaceOnUse"
       gradientTransform="matrix(1.2527685,0,0,1.2527685,-105.07064,47.076291)"
       x1="181.54684"
       y1="124.07362"
       x2="184.82533"
       y2="114.37347" />
  </defs>
  <g
     inkscape:label="Layer 1"
     inkscape:groupmode="layer"
     id="layer1"
     style="display:inline"
     transform="translate(-54.403874,-17.58551)">
    <g
       id="g19375"
       transform="translate(13.470384,-161.64461)">
      <path
         id="path8702-3-4-8-0-9-5-8-1"
         style="fill:#0000ff;stroke:#000000;stroke-width:0.0207356;stroke-linecap:butt;stroke-linejoin:miter;stroke-dasharray:none;stroke-opacity:1"
         d="m 130.92815,225.68334 -0.93732,1.14671 h -0.9374 l -0.93731,-1.14671 -0.93738,1.14671 h -0.93739 l -0.93731,-1.14671 -0.9374,1.14671 h -0.93736 l -0.93736,-1.14671 -0.93735,1.14671 h -0.93731 l -0.93741,-1.14671 -0.9375,1.14671 h -0.93738 l -0.93731,-1.14671 -0.93724,1.14671 h -0.93745 l -0.93727,-1.14671 -0.93753,1.14671 h -0.93726 l -0.93734,-1.14671 -0.93737,1.14671 h -0.93743 l -0.93725,-1.14671 -0.93726,1.14671 h -0.9374 l -0.93731,-1.14671 -0.93738,1.14671 h -0.9374 l -0.9373,-1.14671 -0.93739,1.14671 h -0.93737 l -0.937361,-1.14671 -0.93736,1.14671 h -0.93732 l -0.93738,-1.14671 -0.93751,1.14671 h -0.9374 l -0.93729,-1.14671 -0.9374,1.14671 h -0.93729 l -0.93743,-1.14671 -0.93739,1.14671 h -0.93727 l -0.93733,-1.14671 -0.93739,1.14671 h -0.93742 l -0.93734,-1.14671 -0.93736,1.14671 h -0.9374 l -0.93729,-1.14671 -0.9374,1.14671 h -0.9374 l -0.93731,-1.14671 -0.93741,1.14671 h -0.93737 l -0.93736,-1.14671 -0.93735,1.14671 h -0.937307 l -0.9374,-1.14671 -0.9375,1.14671 h -0.9374 l -0.9373,-1.14671 -0.93724,1.14671 h -0.93744 l -0.93727,-1.14671 -0.93754,1.14671 h -0.93727 l -0.93734,-1.14671 -0.93737,1.14671 h -0.93741 l -0.93726,-1.14671 -0.93727,1.14671 h -0.93739 l -0.9373,-1.14671 -0.9374,1.14671 h -0.937387 l -0.937309,-1.14671 -0.937398,1.14671 h -0.937364 l -0.937357,-1.14671 -0.937359,1.14671 h -0.937314 l -0.937385,-1.14671 -0.937499,1.14671 h -0.937397 l -0.9373,-1.14671 -0.937397,1.14671 h -0.937288 l -0.937409,-1.14671 -0.937398,1.14671 h -0.937264 l -0.937336,-1.14671 -0.937378,1.14671 h -0.937416 l -0.9373,-1.14671 m 89.986633,6e-5 -0.93732,-1.14672 h -0.9374 l -0.93731,1.14672 -0.93738,-1.14672 h -0.93739 l -0.93731,1.14672 -0.9374,-1.14672 h -0.93737 l -0.93735,1.14672 -0.93735,-1.14672 h -0.93731 l -0.93741,1.14672 -0.9375,-1.14672 h -0.93738 l -0.93731,1.14672 -0.93724,-1.14672 h -0.93745 l -0.93727,1.14672 -0.93753,-1.14672 h -0.93726 l -0.93734,1.14672 -0.93737,-1.14672 h -0.93743 l -0.93725,1.14672 -0.93726,-1.14672 h -0.9374 l -0.93731,1.14672 -0.93738,-1.14672 h -0.9374 l -0.9373,1.14672 -0.9374,-1.14672 h -0.93736 l -0.937361,1.14672 -0.93736,-1.14672 h -0.93732 l -0.93739,1.14672 -0.9375,-1.14672 h -0.9374 l -0.93729,1.14672 -0.9374,-1.14672 h -0.93729 l -0.93743,1.14672 -0.93739,-1.14672 h -0.93727 l -0.93733,1.14672 -0.93739,-1.14672 h -0.93742 l -0.93734,1.14672 -0.93736,-1.14672 h -0.9374 l -0.9373,1.14672 -0.93739,-1.14672 h -0.9374 l -0.93731,1.14672 -0.93741,-1.14672 h -0.93737 l -0.93736,1.14672 -0.93735,-1.14672 h -0.937307 l -0.9374,1.14672 -0.9375,-1.14672 h -0.9374 l -0.9373,1.14672 -0.93724,-1.14672 h -0.93744 l -0.93727,1.14672 -0.93754,-1.14672 h -0.93727 l -0.93734,1.14672 -0.93737,-1.14672 h -0.93741 l -0.93726,1.14672 -0.93727,-1.14672 h -0.93739 l -0.9373,1.14672 -0.9374,-1.14672 h -0.937387 l -0.937309,1.14672 -0.937398,-1.14672 h -0.937364 l -0.937357,1.14672 -0.937359,-1.14672 h -0.937314 l -0.937385,1.14672 -0.937499,-1.14672 h -0.937397 l -0.9373,1.14672 -0.937397,-1.14672 h -0.937288 l -0.937409,1.14672 -0.937398,-1.14672 h -0.937264 l -0.937336,1.14672 -0.937378,-1.14672 h -0.937416 l -0.9373,1.14672" />
      <path
         id="path835-1-0-3-7"
         style="color:#000000;fill:#ff5555;-inkscape-stroke:none"
         d="m 99.208402,182.75869 c -0.25635,-3.1e-4 -0.55806,0.0105 -0.93224,0.032 l 0.001,10e-4 c -0.83823,0.0483 -1.66572,0.0369 -2.57452,0.37672 -2.82555,1.9309 -2.43018,2.69039 -3.32589,5.28341 -0.0927,0.43865 -0.82085,0.44812 -0.79375,0.82992 0.0318,0.44762 1.05833,0.38324 1.05833,0.83199 0,0.44875 -1.05833,0.38324 -1.05833,0.83199 0,0.44875 1.05833,0.38324 1.05833,0.83199 0,0.44875 -1.05858,0.38324 -1.05833,0.83199 2.6e-4,0.44834 1.05808,0.3821 1.05833,0.83044 2.6e-4,0.44875 -1.05833,0.38324 -1.05833,0.83199 0,0.44875 1.05833,0.38324 1.05833,0.83199 0,0.44875 -1.05858,0.38324 -1.05833,0.83199 2.6e-4,0.44834 1.05808,0.38159 1.05833,0.82993 2.6e-4,0.44875 -1.05833,0.38324 -1.05833,0.83199 0,0.44875 1.05833,0.38324 1.05833,0.83199 0,0.44875 -1.05833,0.38376 -1.05833,0.83251 0,0.44874 1.05859,0.38324 1.05833,0.83199 -2.5e-4,0.44834 -1.02607,0.38274 -1.05833,0.82992 -0.0276,0.38223 0.68447,0.39675 0.79375,0.83199 0.55308,3.16482 1.15395,4.82634 3.35121,5.97638 0.92149,0.2903 1.73247,0.23316 2.53938,0.29145 1.40892,0.10178 1.68751,0.0198 2.534728,-0.25786 0.84723,-0.27765 1.48085,-0.80389 1.78904,-1.47278 0.61638,-1.33778 0.0848,-2.82667 -0.49609,-4.24625 -0.58088,-1.41959 -1.31106,-2.8427 -1.5565,-3.7853 -0.12272,-0.4713 -0.0928,-0.77506 -0.0548,-0.85525 0.0374,-0.079 0.0749,-0.15645 0.53485,-0.20102 0.68938,-0.0434 1.61772,-0.0102 2.33629,0.19327 0.7222,0.20447 1.12322,0.49142 1.23041,0.95498 l 0.006,0.0233 0.006,0.0217 c 0.17212,0.57824 0.31279,1.91976 0.36535,3.23236 0.0525,1.31031 0.0369,2.64008 -0.008,3.34398 -0.17045,2.28623 -1.17918,4.58581 -2.16369,7.00785 -0.98452,2.42204 -1.94269,4.97958 -1.80092,7.80055 v 0.0119 l 0.002,0.0114 c 0.0786,0.95288 0.45759,2.05818 0.80822,2.98431 0.35063,0.92613 0.68575,1.65261 0.68575,1.65261 l 0.20102,0.43564 h 0.48576 l 0.55811,-0.68265 h 0.93689 l 0.5581,0.68265 h 0.30903 0.44958 l 0.55811,-0.68265 h 0.93741 l 0.55811,0.68265 h 0.45785 0.30076 l 0.5581,-0.68265 h 0.93741 l 0.55811,0.68265 h 0.49299 l 0.20102,-0.43564 c 0,0 0.33512,-0.72648 0.68575,-1.65261 0.35063,-0.92613 0.73016,-2.03143 0.80873,-2.98431 v -0.004 -0.004 c 0.18833,-2.66738 -0.74598,-5.19112 -1.72857,-7.64088 -0.98152,-2.44708 -2.01626,-4.83583 -2.23449,-7.18923 -0.0492,-0.76336 -0.11553,-1.65705 -0.01,-2.3089 0.0532,-0.32758 0.14715,-0.5808 0.2558,-0.73432 0.10864,-0.15351 0.20716,-0.23253 0.44132,-0.28474 l 0.0196,-0.004 0.0212,-0.006 c 0,0 1.15538,-0.32756 4.18166,-0.4005 3.02627,0.0729 4.18165,0.4005 4.18165,0.4005 l 0.0196,0.006 0.0196,0.004 c 0.23416,0.0522 0.33267,0.13123 0.44131,0.28474 0.10864,0.15351 0.20256,0.40673 0.2558,0.73432 0.10621,0.65351 0.0397,1.54994 -0.01,2.31459 -0.17045,2.28623 -1.17969,4.5858 -2.1642,7.00784 -0.98452,2.42204 -1.9427,4.9801 -1.80093,7.80107 l 0.002,0.0114 v 0.0119 c 0.0786,0.95288 0.45812,2.05818 0.80874,2.98431 0.35062,0.92613 0.68522,1.6521 0.68522,1.6521 l 0.20154,0.43563 h 0.6072 l 0.55759,-0.68213 h 0.93741 l 0.55759,0.68213 h 0.18758 0.57206 l 0.55759,-0.68213 h 0.93741 l 0.55707,0.68213 h 0.33693 0.42272 l 0.55759,-0.68213 h 0.93741 l 0.55758,0.68213 h 0.37259 l 0.20102,-0.43563 c 0,0 0.33512,-0.72597 0.68575,-1.6521 0.35063,-0.92613 0.72964,-2.03143 0.80822,-2.98431 v -0.004 -0.004 c 0.18832,-2.66739 -0.74598,-5.1906 -1.72858,-7.64036 -0.98151,-2.44708 -2.01573,-4.83635 -2.23397,-7.18974 -0.0492,-0.76336 -0.0856,-1.6595 -0.009,-2.30928 l -1.48081,-0.2379 c -0.18023,0.59744 -0.0404,1.25768 -0.005,1.85756 h -1.1312 c 0.0357,-0.59987 0.10131,-1.20192 -0.006,-1.85931 -0.0764,-0.46991 -0.21637,-0.94171 -0.51212,-1.35961 -0.29346,-0.41466 -0.76714,-0.74578 -1.33015,-0.87488 -0.0179,-0.005 -1.39814,-0.38381 -4.53874,-0.45682 h -0.0176 -0.0176 c -3.14059,0.0731 -4.52341,0.45196 -4.54132,0.45682 -0.56301,0.1291 -1.0367,0.46022 -1.33016,0.87488 -0.29576,0.4179 -0.43522,0.8897 -0.51159,1.35961 -0.10685,0.65739 -0.0397,1.25943 -0.004,1.85931 h -1.12654 c 0.0249,-0.78784 0.0477,-1.65637 0.006,-2.70888 -0.0541,-1.35028 -0.15742,-2.66094 -0.42168,-3.5667 -0.2731,-1.14799 -1.29004,-1.7701 -2.27324,-2.04846 -0.71122,-0.20136 -1.39171,-0.17558 -2.05673,-0.17776 v -1.19941 c 0.5999,0.0357 1.20192,0.10079 1.85932,-0.006 0.46992,-0.0764 0.9412,-0.21584 1.35909,-0.5116 0.41719,-0.29526 0.75375,-0.77029 0.88108,-1.3379 2e-5,-5e-5 0.002,-0.002 0.002,-0.002 0.0134,-0.0458 0.35695,-1.20966 0.44545,-2.01331 l -1.49241,-0.16434 c -0.0543,0.49288 -0.40618,1.8123 -0.40618,1.8123 l -0.006,0.0196 -0.004,0.0196 c -0.0522,0.23417 -0.13123,0.33267 -0.28474,0.44132 -0.15351,0.10865 -0.40673,0.20255 -0.73432,0.2558 -0.65516,0.10649 -1.55491,0.0398 -2.32079,-0.01 -0.4458,-0.0353 -0.43666,-0.095 -0.447,-0.11938 -0.0105,-0.0248 -0.0308,-0.30384 0.11937,-0.74775 0.3003,-0.88783 1.10174,-2.24325 1.72806,-3.6034 0.31317,-0.68007 0.58587,-1.36866 0.71882,-2.06292 0.13296,-0.69426 0.12606,-1.42753 -0.22066,-2.0836 -0.34672,-0.65607 -1.01406,-1.14132 -1.90221,-1.40663 -0.66612,-0.19899 -1.024648,-0.29827 -1.793688,-0.29921 z m -0.002,1.50276 c 0.67,0.002 0.895518,0.0928 1.366838,0.23357 0.62843,0.18774 0.87417,0.42304 1.00563,0.67179 0.13146,0.24875 0.16913,0.60514 0.0744,1.09968 -0.0947,0.49453 -0.31996,1.09384 -0.60771,1.71876 -0.57553,1.24982 -1.389858,2.56949 -1.789038,3.74964 -0.19958,0.59007 -0.34224,1.19234 -0.078,1.81436 0.17668,0.41598 0.5757,0.66178 1.029388,0.82837 v 1.53893 c -0.469978,0.17478 -0.882198,0.43017 -1.080038,0.84801 -0.29099,0.61458 -0.2043,1.25113 -0.0413,1.87688 0.32588,1.25151 1.077408,2.64957 1.619538,3.97444 0.54213,1.32486 0.77471,2.50365 0.52348,3.04891 -0.12561,0.27263 -0.33361,0.49211 -0.89452,0.67593 -0.560918,0.18381 -0.669248,0.28034 -1.960598,0.18707 -0.92042,-0.0665 -1.59014,-0.0337 -2.19521,-0.22428 -0.30254,-0.0953 -0.84014,-0.93169 -1.30173,-1.87224 -0.46159,-0.94055 -0.84738,-1.98563 -0.8475,-2.49855 l -0.003,-12.88966 c 0.86804,-3.39202 1.33136,-4.58306 4.33565,-4.75319 0.34771,-0.02 0.62055,-0.0292 0.84388,-0.0284 z m 7.089488,21.51858 h 1.43919 c 0.35742,2.4273 1.29616,4.72958 2.18178,6.93756 0.97012,2.41867 1.7832,4.72946 1.62471,6.97425 -0.0524,0.61779 -0.38505,1.69764 -0.71469,2.56832 -0.23806,0.62882 -0.35473,0.87223 -0.46457,1.11931 h -0.092 -0.59169 -0.5917 -0.59221 -0.59169 -0.5917 -0.59376 -0.59169 -0.5917 -0.59221 -0.5917 -0.59169 -0.092 c -0.10984,-0.24708 -0.2265,-0.49049 -0.46457,-1.11931 -0.32911,-0.86927 -0.6599,-1.9459 -0.71313,-2.56419 -0.11893,-2.42906 0.71973,-4.76185 1.68982,-7.1484 0.88357,-2.1737 1.79643,-4.39966 2.11718,-6.76754 z m 13.9392,0 h 1.43971 c 0.35742,2.4273 1.29565,4.72958 2.18126,6.93756 0.97013,2.41867 1.78371,4.72945 1.62522,6.97425 -0.0524,0.61779 -0.38505,1.69764 -0.71468,2.56832 -0.23807,0.62882 -0.35525,0.87223 -0.46509,1.11931 h -0.0899 -0.59376 -0.59169 -0.5917 -0.59169 -0.5917 -0.59221 -0.59376 -0.5917 -0.59169 -0.5917 -0.59169 -0.092 c -0.10984,-0.24708 -0.22702,-0.49049 -0.46509,-1.11931 -0.3291,-0.86927 -0.65939,-1.9459 -0.71261,-2.56419 -0.11894,-2.42907 0.71921,-4.76185 1.6893,-7.1484 0.88357,-2.1737 1.79642,-4.39966 2.11718,-6.76754 z"
         sodipodi:nodetypes="cccccsssssssssssssssccsssssscscccscscccsccccccccccccccccccscccsccscccccccsscscccsccccccccccccccccccscccsccccccscccccssccccscccssccccccsscscssssccccsscssccscsssssssccccccscsccccccccccccccscsscccscsccccccccccccccscssc" />
      <path
         id="path13482-2"
         style="color:#000000;fill:#008000;-inkscape-stroke:none"
         d="m 58.250424,224.87857 0.558623,-0.68316 h 0.93741 l 0.558622,0.68316 h 0.379305 0.378272 l 0.558622,-0.68316 h 0.937411 l 0.558105,0.68316 h 0.52865 0.228927 l 0.558622,-0.68316 h 0.93741 l 0.558622,0.68316 h 0.56379 l 0.201022,-0.43511 c 0,0 0.335126,-0.72649 0.685746,-1.65261 0.35063,-0.92613 0.730166,-2.03144 0.808736,-2.98432 v -0.0119 l 0.0021,-0.0114 c 0.14177,-2.82098 -0.816405,-5.37904 -1.800924,-7.80108 -0.983669,-2.41992 -1.992439,-4.71737 -2.164209,-7.00164 -0.0493,-0.76591 -0.117868,-1.6651 -0.01137,-2.32027 0.0532,-0.32759 0.149225,-0.58081 0.257865,-0.73432 0.10864,-0.15351 0.207157,-0.23304 0.441317,-0.28525 l 0.01912,-0.004 0.01964,-0.006 c 0,0 1.15538,-0.32709 4.181657,-0.39998 3.026287,0.0729 4.181657,0.39998 4.181657,0.39998 l 0.01964,0.006 0.02119,0.004 c 0.23417,0.0522 0.331117,0.13174 0.439767,0.28525 0.10864,0.15352 0.204625,0.40674 0.257865,0.73432 0.10595,0.65186 0.03916,1.54503 -0.01033,2.30839 -0.21823,2.35339 -1.252453,4.74215 -2.233972,7.18922 -0.982589,2.44976 -1.918974,4.9735 -1.730644,7.64088 l 0.0021,0.004 v 0.004 c 0.0786,0.95288 0.456039,2.0587 0.806669,2.98483 0.35063,0.92613 0.68523,1.6521 0.68523,1.6521 l 0.201538,0.43563 h 0.535884 l 0.559139,-0.68368 h 0.937411 l 0.559139,0.68368 h 0.257865 0.498678 l 0.559139,-0.68368 h 0.937409 l 0.55914,0.68368 h 0.4067 0.34985 l 0.55914,-0.68368 h 0.93741 l 0.55914,0.68368 h 0.44183 l 0.20154,-0.43563 c 0,0 0.3346,-0.72597 0.68523,-1.6521 0.35063,-0.92613 0.73016,-2.03195 0.80873,-2.98483 v -0.0114 l 0.002,-0.0119 c 0.14177,-2.82098 -0.81641,-5.37851 -1.80092,-7.80056 -0.98367,-2.41994 -1.99245,-4.71789 -2.16421,-7.00216 -0.0452,-0.70294 -0.0601,-2.03706 -0.008,-3.34966 0.0526,-1.3126 0.19322,-2.65412 0.36535,-3.23236 l 0.006,-0.0212 0.006,-0.0238 c 0.10718,-0.46356 0.50615,-0.75051 1.22835,-0.95498 0.71857,-0.20344 1.64847,-0.23669 2.33784,-0.19327 0.45999,0.0446 0.49797,0.12203 0.53537,0.20102 0.038,0.0802 0.0679,0.38446 -0.0548,0.85576 -0.24544,0.9426 -0.97561,2.36519 -1.5565,3.78478 -0.58089,1.41958 -1.11247,2.90848 -0.49609,4.24625 0.30818,0.66889 0.94181,1.19513 1.78904,1.47278 0.84722,0.27764 1.91904,0.35965 3.32796,0.25787 0.80691,-0.0583 1.08871,-6.4e-4 2.01021,-0.29094 1.84011,-0.59921 3.99129,-4.39441 4.40955,-5.9769 -0.10928,-0.43524 -0.82081,-0.44976 -0.79323,-0.83199 0.0323,-0.44718 1.05808,-0.38158 1.05833,-0.82992 2.6e-4,-0.44875 -1.05833,-0.38324 -1.05833,-0.83199 0,-0.44875 1.05833,-0.38324 1.05833,-0.83199 0,-0.44875 -1.05833,-0.38324 -1.05833,-0.83199 0,-0.44875 1.05859,-0.38324 1.05833,-0.83199 -2.5e-4,-0.44834 -1.05807,-0.3821 -1.05833,-0.83044 -2.5e-4,-0.44875 1.05833,-0.38324 1.05833,-0.83199 0,-0.44875 -1.05833,-0.38324 -1.05833,-0.83199 0,-0.44875 1.05859,-0.38325 1.05833,-0.83199 -2.5e-4,-0.44834 -1.05807,-0.38159 -1.05833,-0.82993 -2.5e-4,-0.44875 1.05833,-0.38324 1.05833,-0.83199 0,-0.44875 -1.05833,-0.38324 -1.05833,-0.83199 0,-0.44875 1.05833,-0.38376 1.05833,-0.83251 0,-0.44875 -1.02655,-0.38437 -1.05833,-0.83199 -0.0271,-0.3818 0.77982,-0.4474 0.79323,-0.82992 0.0802,-2.28715 -2.1476,-4.41428 -4.38423,-5.2834 -0.90881,-0.33978 -1.20712,-0.32839 -2.04535,-0.37672 l 10e-4,-10e-4 c -1.49675,-0.0863 -2.63153,0.002 -3.51968,0.26768 -0.88816,0.26532 -1.55757,0.75005 -1.90428,1.40612 -0.34672,0.65606 -0.35206,1.38985 -0.2191,2.08411 0.13296,0.69426 0.40566,1.38233 0.71882,2.0624 0.62632,1.36015 1.42827,2.71557 1.72857,3.6034 0.15014,0.44391 0.12989,0.7235 0.11937,0.74828 -0.0104,0.0244 -0.001,0.0835 -0.44751,0.11885 -0.76587,0.0493 -1.66512,0.11608 -2.32028,0.01 -0.32757,-0.0532 -0.5808,-0.14715 -0.73432,-0.2558 -0.15351,-0.10865 -0.23304,-0.20715 -0.28525,-0.44132 l -0.004,-0.0196 -0.006,-0.0191 c 0,0 -0.35397,-1.31993 -0.40824,-1.81281 l -1.49036,0.16433 c 0.0885,0.80366 0.43201,1.96755 0.44546,2.01331 2.1e-4,9.5e-4 0.002,0.001 0.002,0.002 0.12733,0.56761 0.46181,1.04264 0.87901,1.3379 0.41789,0.29576 0.89124,0.43574 1.36116,0.51212 0.65789,0.10693 1.2591,0.0413 1.85932,0.006 v 1.19734 c -0.6654,0.002 -1.34497,-0.0216 -2.05672,0.17984 -0.98188,0.27799 -1.9985,0.8998 -2.27325,2.04483 -0.2649,0.90585 -0.36962,2.21858 -0.42375,3.57033 -0.0421,1.05251 -0.0174,1.92104 0.008,2.70888 h -1.127064 c 0.0357,-0.59988 0.103323,-1.20192 -0.0036,-1.85932 -0.0764,-0.46991 -0.217914,-0.94171 -0.513664,-1.35961 -0.29346,-0.41465 -0.765075,-0.74578 -1.328084,-0.87488 -0.0179,-0.005 -1.400738,-0.38376 -4.541325,-0.45682 h -0.01757 -0.01757 c -3.139137,0.073 -4.520048,0.44953 -4.539258,0.45475 -0.563519,0.1289 -1.035985,0.46201 -1.329635,0.87695 -0.295759,0.4179 -0.437283,0.8897 -0.513663,1.35961 -0.10684,0.6574 -0.03973,1.25945 -0.0041,1.85932 h -1.131198 c 0.0357,-0.59988 0.103333,-1.20192 -0.0036,-1.85932 l -0.887349,-3.16575 -0.593225,3.40629 c 0.10594,0.65185 0.03916,1.54555 -0.01033,2.30891 -0.21824,2.35339 -1.25297,4.74215 -2.234489,7.18922 -0.982589,2.44976 -1.918447,4.97349 -1.730127,7.64088 v 0.004 l 0.0021,0.004 c 0.0786,0.95288 0.45604,2.05819 0.806669,2.98432 0.35063,0.92612 0.68523,1.65261 0.68523,1.65261 l 0.201538,0.43511 z m 27.446385,-40.58305 c 0.98553,0.0784 2.66915,0.95888 3.3166,2.20658 0.47398,0.95925 0.87194,2.02019 0.87178,2.53938 l -0.004,12.88966 c -1.6e-4,0.51292 -0.3858,1.55799 -0.84697,2.49855 -0.46116,0.94055 -1.52681,1.77693 -1.82935,1.87224 -0.60507,0.19062 -0.74563,0.15779 -1.66605,0.22428 -1.29134,0.0933 -2.19292,-0.004 -2.75383,-0.18707 -0.56092,-0.18382 -0.7689,-0.4033 -0.89452,-0.67593 -0.25122,-0.54526 -0.0207,-1.72405 0.52141,-3.04891 0.54213,-1.32487 1.29522,-2.72293 1.62109,-3.97444 0.16294,-0.62575 0.24964,-1.2623 -0.0413,-1.87688 -0.19785,-0.41784 -0.61006,-0.67323 -1.08004,-0.84801 v -1.53893 c 0.45343,-0.16663 0.85073,-0.41257 1.02733,-0.82837 0.26419,-0.62202 0.12366,-1.22429 -0.076,-1.81436 -0.39917,-1.18015 -1.21352,-2.49982 -1.78904,-3.74964 -0.28777,-0.62492 -0.51302,-1.22423 -0.60772,-1.71876 -0.0947,-0.49454 -0.0592,-0.85093 0.0724,-1.09968 0.13146,-0.24875 0.37978,-0.48406 1.00821,-0.67179 0.46167,-0.13791 2.59113,-0.18324 3.15019,-0.19792 z m -24.253815,21.48293 h 1.439189 c 0.32076,2.36788 1.235681,4.59384 2.11925,6.76754 0.97009,2.38655 1.806176,4.71933 1.687236,7.1484 -0.0532,0.61829 -0.381441,1.69492 -0.710551,2.56419 -0.23806,0.62882 -0.355248,0.87223 -0.465088,1.11931 H 65.42105 64.829355 64.23766 63.645965 63.052202 62.460507 61.868295 61.2766 60.684905 60.09321 59.499448 58.907753 58.817833 c -0.10984,-0.24708 -0.227019,-0.49049 -0.465088,-1.11931 -0.33039,-0.87269 -0.665522,-1.95695 -0.716752,-2.57401 -4e-5,-4.4e-4 3e-5,-0.002 0,-0.002 -0.15613,-2.24242 0.658261,-4.55055 1.62729,-6.9665 0.88561,-2.20796 1.822283,-4.51029 2.179712,-6.93756 z m 13.939201,0 h 1.439704 c 0.32071,2.36801 1.23512,4.59373 2.11874,6.76754 0.96957,2.38527 1.80767,4.71659 1.68982,7.14427 -0.0524,0.61778 -0.38351,1.69765 -0.71314,2.56832 -0.23807,0.62882 -0.35473,0.87223 -0.46457,1.11931 h -0.092 -0.5917 -0.59221 -0.5917 -0.59376 -0.5917 -0.59169 -0.591695 -0.591695 -0.592212 -0.593762 -0.591696 -0.08992 c -0.109829,-0.24708 -0.226501,-0.49049 -0.464571,-1.11931 -0.330399,-0.87269 -0.665522,-1.95695 -0.716752,-2.57401 -3e-5,-4.4e-4 4e-5,-0.002 0,-0.002 -0.15612,-2.24242 0.657745,-4.55055 1.626774,-6.9665 0.885603,-2.20796 1.822293,-4.51028 2.179712,-6.93756 z"
         sodipodi:nodetypes="ccccccccccccccccscccsccscccccccsscscccsccccccccccccccccccscccscccccscscsssscccsssssssssssssssccccsssscccscccccccsscccccccsscccccssccccccscccscccccssssscssscccscsscsccccscsccccccccccccccsscsscccscsccccccccccccccsscssc" />
      <path
         sodipodi:type="star"
         style="fill:none;fill-opacity:1;fill-rule:evenodd;stroke:#008000;stroke-width:1.253;stroke-dasharray:none;stroke-opacity:1"
         id="path21619-5"
         inkscape:flatsided="false"
         sodipodi:sides="5"
         sodipodi:cx="48.205307"
         sodipodi:cy="86.943939"
         sodipodi:r1="5.2315836"
         sodipodi:r2="2.6157918"
         sodipodi:arg1="1.5707963"
         sodipodi:arg2="2.1991149"
         inkscape:rounded="0"
         inkscape:randomized="0"
         d="m 48.205307,92.175523 -1.537524,-3.115364 -3.438008,-0.499571 2.487766,-2.424973 -0.587282,-3.424116 3.075048,1.616648 3.075048,-1.616648 -0.587282,3.424116 2.487766,2.424972 -3.438008,0.499572 z"
         inkscape:transform-center-y="0.49957068"
         transform="translate(12.493669,107.16977)" />
      <g
         id="g13085"
         style="display:inline">
        <path
           style="color:#000000;fill:#000000;fill-opacity:0.7;stroke:none;stroke-width:1.25299;stroke-dasharray:none"
           d="m 119.39599,187.5245 c -0.38857,0.0215 -0.85858,0.19949 -1.31255,0.36932 -0.46273,0.1731 -0.90847,0.33756 -1.23715,0.36064 -0.2954,0.0207 -0.46434,-0.0982 -0.64192,-0.21953 -0.17361,-0.11862 -0.35738,-0.23964 -0.74806,-0.18353 -0.45878,0.0659 -1.05623,0.33898 -1.63577,0.60066 -0.59817,0.27008 -1.17532,0.52732 -1.56755,0.58767 -0.33934,0.0522 -0.68227,-0.0486 -0.9102,-0.16869 -0.22278,-0.11739 -0.62795,-0.1374 -0.62795,-0.1374 0,0 -0.10335,0.19385 0.24365,0.38861 0.23477,0.12921 0.5633,0.25313 1.01543,0.18325 0.50656,-0.0783 1.17846,-0.38885 1.78582,-0.6657 0.5882,-0.26811 1.11938,-0.50585 1.48675,-0.55879 0.30544,-0.044 0.47319,0.0554 0.64428,0.17725 0.17502,0.12461 0.35286,0.27281 0.73632,0.24621 0.41164,-0.0286 0.92061,-0.22507 1.39058,-0.40267 0.46095,-0.1742 0.88592,-0.33089 1.20549,-0.34823 0.62821,-0.0341 1.00607,0.28275 1.52388,0.49321 0.25803,0.10488 0.45816,0.31013 0.69725,0.49584 0.24678,0.19166 0.53769,0.3636 0.98851,0.34172 0.47541,-0.0231 0.97577,-0.27458 1.44017,-0.52302 0.45162,-0.2416 0.87525,-0.48269 1.25991,-0.574 0.34869,-0.0828 0.89749,-0.11855 1.35066,-0.12951 0.45596,-0.011 0.82104,0.001 0.82104,0.001 l 0.066,-0.25026 c 0,0 -0.3672,-0.0101 -0.82401,0.002 -0.45402,0.0118 -0.99442,0.0425 -1.39416,0.1365 -0.45599,0.10726 -0.90492,0.36526 -1.34134,0.59538 -0.4483,0.23639 -0.87175,0.43852 -1.24235,0.45699 -0.36103,0.018 -0.61955,-0.11837 -0.85732,-0.29625 -0.23076,-0.17263 -0.43544,-0.38064 -0.72524,-0.4946 -0.49007,-0.19272 -0.87833,-0.52327 -1.59022,-0.48388 z"
           id="path13662-1-19"
           sodipodi:nodetypes="csssssssccssssssssssssscccssssscc" />
        <path
           style="color:#000000;fill:#000000;fill-opacity:0.45;stroke-width:1.25277;-inkscape-stroke:none"
           d="m 123.07819,183.36199 c -0.27494,0.0204 -0.57433,0.11409 -0.86187,0.20345 -0.29136,0.0906 -0.57061,0.17665 -0.80003,0.19607 -0.20633,0.0175 -0.35863,-0.0307 -0.51813,-0.0801 -0.15705,-0.0486 -0.32214,-0.0988 -0.59132,-0.0625 -0.31591,0.0427 -0.67236,0.18231 -1.01502,0.31493 -0.35021,0.13555 -0.68589,0.26362 -0.9489,0.30095 -0.22738,0.0323 -0.50821,-0.001 -0.71401,-0.0463 -0.20261,-0.0446 -0.33958,-0.0969 -0.33958,-0.0969 l -0.2039,0.11312 c 0,0 0.14156,0.0557 0.35158,0.1032 0.21347,0.0483 0.49019,0.0917 0.79127,0.0489 0.33761,-0.048 0.72221,-0.20055 1.07548,-0.33828 0.34559,-0.13472 0.6623,-0.25602 0.91393,-0.29008 0.2093,-0.0283 0.35734,0.012 0.51326,0.0615 0.15837,0.0503 0.32365,0.11047 0.59017,0.088 0.28584,-0.0241 0.60128,-0.12494 0.89531,-0.21697 0.29016,-0.0908 0.56005,-0.17323 0.78506,-0.18981 0.44173,-0.0325 0.77116,0.0999 1.17376,0.17924 0.19865,0.0391 0.37257,0.12344 0.56828,0.19729 0.1999,0.0754 0.42577,0.13995 0.7292,0.11827 0.31952,-0.0228 0.62561,-0.1436 0.91114,-0.26326 0.28025,-0.11745 0.54451,-0.2346 0.7993,-0.28536 0.23148,-0.0461 0.60445,-0.0765 0.91418,-0.0933 0.31102,-0.0169 0.56181,-0.0215 0.56181,-0.0215 l 0.0276,-0.11403 c 0,0 -0.25273,0.005 -0.56606,0.0222 -0.31203,0.0171 -0.68185,0.0451 -0.94885,0.0981 -0.30381,0.0602 -0.58482,0.1871 -0.85716,0.30013 -0.27731,0.11509 -0.53988,0.21379 -0.7905,0.23183 -0.24444,0.0176 -0.44242,-0.034 -0.63425,-0.10469 -0.18799,-0.0693 -0.36552,-0.15563 -0.58856,-0.19854 -0.38088,-0.0733 -0.72024,-0.2129 -1.22312,-0.17559 z"
           id="path13662-1-1-6" />
        <path
           style="color:#000000;fill:#000000;fill-opacity:0.55;stroke-width:1.25277;-inkscape-stroke:none"
           d="m 135.36459,183.94679 c -0.35908,0.0242 -0.62352,0.14566 -0.8797,0.26131 -0.26038,0.11755 -0.51221,0.22905 -0.80912,0.25246 -0.26693,0.0211 -0.56941,-0.0451 -0.88325,-0.11282 -0.30782,-0.0664 -0.62859,-0.13419 -0.95103,-0.0889 -0.37852,0.0532 -0.65352,0.23515 -0.92195,0.40883 -0.27578,0.17844 -0.54366,0.34778 -0.8594,0.39512 -0.27305,0.0409 -0.73069,-0.008 -1.09804,-0.0723 -0.36027,-0.0629 -0.63836,-0.13591 -0.63836,-0.13591 l -0.10962,0.15013 c 0,0 0.29052,0.0781 0.66687,0.14557 0.38409,0.0689 0.85272,0.1316 1.21519,0.0771 0.40628,-0.0611 0.70591,-0.26407 0.98268,-0.44614 0.26929,-0.17717 0.51775,-0.33517 0.81996,-0.37776 0.2513,-0.0354 0.53177,0.02 0.8402,0.088 0.31449,0.0693 0.65714,0.15177 1.00311,0.12467 0.37124,-0.0291 0.64955,-0.16114 0.91163,-0.28114 0.25779,-0.11804 0.50046,-0.22479 0.79539,-0.24449 0.57943,-0.0387 1.29809,0.1411 2.03187,0.25197 0.36394,0.055 0.77803,0.17099 1.20681,0.27372 0.44036,0.10551 0.90124,0.1976 1.3106,0.17164 0.43141,-0.0273 0.6495,-0.18922 0.83819,-0.34902 0.18432,-0.15609 0.34466,-0.31122 0.62137,-0.37676 0.25109,-0.0595 0.74277,-0.0964 1.16828,-0.11584 0.42775,-0.0195 0.79128,-0.0232 0.79128,-0.0232 l -0.19064,-0.15205 c 0,0 -0.36446,0.004 -0.79349,0.0242 -0.42678,0.0199 -0.91695,0.0536 -1.20635,0.12156 -0.32975,0.0774 -0.496,0.24464 -0.67744,0.39413 -0.18559,0.15292 -0.38223,0.28433 -0.71911,0.30596 -0.32839,0.0211 -0.71999,-0.0518 -1.13816,-0.15006 -0.40774,-0.0958 -0.83104,-0.21388 -1.23664,-0.27375 -0.68902,-0.10171 -1.43374,-0.29058 -2.09111,-0.24625 z"
           id="path13662-1-0-2" />
        <path
           style="color:#000000;fill:#000000;fill-opacity:0.35;stroke-width:1.25277;-inkscape-stroke:none"
           d="m 133.67534,181.38292 c -0.26293,0.0209 -0.46729,0.0935 -0.66464,0.16283 -0.19973,0.0701 -0.39241,0.13682 -0.60867,0.15593 -0.19452,0.0172 -0.40758,-0.0125 -0.63051,-0.0429 -0.21978,-0.03 -0.45017,-0.0609 -0.68901,-0.0289 -0.28025,0.0375 -0.48974,0.14336 -0.69256,0.2438 -0.2069,0.10245 -0.40698,0.1992 -0.63719,0.2315 -0.199,0.0279 -0.53082,0.012 -0.79889,-0.014 -0.26427,-0.0257 -0.46952,-0.0584 -0.46952,-0.0584 l -0.0789,0.0832 c 0,0 0.21325,0.0349 0.48849,0.0623 0.27937,0.0278 0.61843,0.0507 0.8815,0.0137 0.29507,-0.0415 0.51812,-0.15617 0.72558,-0.26006 0.20336,-0.10182 0.39262,-0.19382 0.61555,-0.22369 0.18545,-0.0248 0.3864,-4.7e-4 0.60589,0.03 0.22263,0.031 0.46346,0.0686 0.71455,0.0464 0.26928,-0.0237 0.48188,-0.10137 0.68258,-0.17247 0.19831,-0.0702 0.38528,-0.13423 0.60036,-0.15127 0.4221,-0.0334 0.91256,0.0507 1.41788,0.0961 0.24886,0.0223 0.52175,0.0764 0.80502,0.12268 0.28875,0.0472 0.59164,0.0861 0.87968,0.0637 0.30322,-0.0235 0.48632,-0.11428 0.64982,-0.20389 0.16078,-0.0881 0.30569,-0.17583 0.51301,-0.21725 0.18843,-0.0376 0.53951,-0.0677 0.84002,-0.0869 0.30165,-0.0192 0.55369,-0.0283 0.55369,-0.0283 l -0.0927,-0.0802 c 0,0 -0.25469,0.01 -0.5587,0.029 -0.30287,0.0194 -0.65439,0.0479 -0.87226,0.0912 -0.24779,0.0493 -0.39868,0.14421 -0.55613,0.22923 -0.16004,0.0864 -0.32251,0.16101 -0.5605,0.17959 -0.23218,0.0181 -0.49259,-0.0127 -0.76805,-0.0569 -0.27048,-0.0434 -0.54964,-0.099 -0.82813,-0.1234 -0.47646,-0.0417 -0.98644,-0.13088 -1.4672,-0.0926 z"
           id="path13662-1-7-3" />
        <path
           style="color:#000000;fill:#000000;fill-opacity:0.3;stroke-width:1.25277;-inkscape-stroke:none"
           d="m 135.62291,179.23012 c 0,0 -0.14092,0.0323 -0.30757,0.0759 -0.16804,0.044 -0.36299,0.0991 -0.47331,0.14846 -0.1265,0.0566 -0.17353,0.12889 -0.22944,0.19644 -0.057,0.0689 -0.12152,0.13174 -0.25979,0.17156 -0.13621,0.0392 -0.31542,0.0536 -0.51349,0.0624 -0.19719,0.009 -0.40928,0.0117 -0.60767,0.033 -0.34578,0.0373 -0.74945,0.0507 -1.07147,0.13983 -0.17903,0.0496 -0.28772,0.12369 -0.39358,0.1952 -0.10787,0.0728 -0.21285,0.14291 -0.36468,0.18728 -0.13783,0.0403 -0.31991,0.0543 -0.5117,0.0694 -0.19139,0.0151 -0.39409,0.0315 -0.56662,0.09 -0.20483,0.0694 -0.3094,0.17239 -0.41258,0.27143 -0.10586,0.10165 -0.20991,0.19885 -0.3834,0.26036 -0.15143,0.0537 -0.44975,0.10344 -0.70371,0.1355 -0.25416,0.0321 -0.46351,0.0487 -0.46351,0.0487 l -0.0125,0.0706 c 0,0 0.21823,-0.0172 0.48337,-0.0507 0.26491,-0.0335 0.5734,-0.0806 0.77288,-0.15189 0.22092,-0.0789 0.33232,-0.19154 0.43694,-0.29385 0.10197,-0.0997 0.19771,-0.18994 0.35961,-0.24523 0.13345,-0.0456 0.3084,-0.0617 0.49978,-0.0767 0.19177,-0.015 0.39938,-0.0286 0.5767,-0.0808 0.18796,-0.0553 0.30091,-0.135 0.40811,-0.20841 0.10523,-0.072 0.20483,-0.13811 0.35042,-0.17865 0.28176,-0.0785 0.66828,-0.0931 1.03479,-0.13264 0.17718,-0.0191 0.38394,-0.0223 0.59058,-0.0314 0.20761,-0.009 0.41726,-0.0243 0.58536,-0.073 0.17485,-0.0507 0.24355,-0.12502 0.30067,-0.1959 0.056,-0.0694 0.10236,-0.13649 0.20714,-0.18386 0.0946,-0.0427 0.28737,-0.0989 0.45304,-0.14247 0.16431,-0.0433 0.30304,-0.0751 0.30304,-0.0751 z"
           id="path13662-1-6-8" />
        <path
           id="path13498-0-7-4-6"
           style="color:#000000;mix-blend-mode:normal;fill:url(#linearGradient6293);fill-opacity:1;stroke-width:1.25277;-inkscape-stroke:none"
           d="m 124.93553,179.80246 c -0.12816,-1.4e-4 -0.26621,0.006 -0.41238,0.0202 -0.92841,0.0871 -1.99806,0.44527 -2.44223,0.84232 -0.50557,0.45192 -0.0303,0.78407 1.13895,0.6811 1.12712,-0.0993 2.26734,-0.54627 2.58537,-0.96532 0.61095,-0.0791 1.05769,-0.077 1.40043,-0.0139 0.35594,0.0654 0.61676,0.20095 0.80099,0.40204 0.41072,0.44832 0.46115,1.28391 0.26148,2.43189 -0.26682,1.53396 -1.01383,3.83626 -2.01693,6.62441 -0.38498,1.07006 -0.79965,2.19106 -1.22215,3.31917 -0.42251,1.12809 -0.85251,2.26341 -1.26814,3.36207 -0.41563,1.09868 -0.81695,2.16068 -1.18132,3.14245 -0.36437,0.98175 -1.05988,2.78794 -1.05988,2.78794 l 1.48466,0.22634 c 0.21115,-0.71866 0.47599,-1.68784 0.79013,-2.6634 0.31413,-0.97554 0.66785,-2.05246 1.03766,-3.17759 0.36981,-1.12512 0.75562,-2.29851 1.13378,-3.46593 0.37816,-1.16741 0.74859,-2.32892 1.08779,-3.43132 0.87653,-2.84873 1.51441,-5.18984 1.70326,-6.75359 0.14052,-1.16363 0.0555,-2.01574 -0.41703,-2.49391 -0.21019,-0.21267 -0.50869,-0.36367 -0.92397,-0.43666 -0.58962,-0.0603 -1.07101,-0.0488 -1.53841,0.007 0.0867,-0.27803 -0.30446,-0.44475 -0.94206,-0.44545 z"
           sodipodi:nodetypes="ssssccssssssccssssssccs" />
      </g>
    </g>
  </g>
  <g
     inkscape:groupmode="layer"
     id="layer2"
     inkscape:label="Layer 2"
     style="display:inline"
     transform="translate(-54.403874,-17.58551)" />
</svg>
